<svg width="138" height="18" viewBox="0 0 138 18" fill="none" xmlns="http://www.w3.org/2000/svg">
<path d="M45.1701 17.6562H42.5322C42.5322 17.473 42.5322 17.3121 42.5322 17.1512C42.5322 14.5098 42.5322 11.8701 42.5287 9.2287C42.5287 8.9839 42.5148 8.73397 42.4609 8.49602C42.2922 7.74623 41.7897 7.3234 41.0106 7.23952C40.5029 7.18474 40.009 7.24123 39.5413 7.44152C39.2996 7.54423 39.0613 7.65892 38.837 7.79416C37.9084 8.3488 37.9102 8.35223 37.9102 9.41358V17.1306C37.9102 17.2933 37.9102 17.4542 37.9102 17.6065C37.5763 17.699 35.7818 17.7144 35.2723 17.6305V17.1597C35.2723 14.5183 35.274 11.8787 35.2688 9.23726C35.2688 8.97877 35.2514 8.71514 35.194 8.46521C35.0288 7.75308 34.5419 7.34052 33.8029 7.24465C33.1613 7.16248 32.5492 7.26862 31.9893 7.57504C31.6154 7.77875 31.2693 8.03724 30.9111 8.26835C30.7042 8.40187 30.6468 8.58846 30.6486 8.82812C30.6573 10.3055 30.6538 11.7828 30.6538 13.2618C30.6538 14.5748 30.6538 15.8895 30.6538 17.2025C30.6538 17.348 30.6538 17.4953 30.6538 17.6613H28.0437V5.34791C28.3167 5.2589 29.9113 5.23493 30.499 5.31881V6.50684C30.7112 6.50684 30.7894 6.36133 30.8955 6.27232C31.8971 5.43693 33.0343 4.95761 34.3611 4.97302C34.8776 4.97815 35.3836 5.06203 35.8687 5.24863C36.6286 5.54307 37.1764 6.06005 37.5746 6.82182C37.6876 6.71227 37.7798 6.62154 37.8719 6.53252C38.9118 5.53793 40.1377 4.96446 41.6071 4.97473C41.9236 4.97644 42.247 5.01581 42.5565 5.08429C43.9563 5.39242 44.8692 6.34935 45.0988 7.74281C45.1457 8.02526 45.1683 8.31457 45.1683 8.60045C45.1736 11.4729 45.1718 14.3472 45.1718 17.2197V17.6562H45.1701Z" fill="white"/>
<path d="M10.6444 15.7495C10.6253 15.7837 10.6061 15.8197 10.5853 15.8539C9.90883 17.0146 8.86202 17.6445 7.55089 17.8773C6.29019 18.0999 5.05558 18.0023 3.87487 17.4888C2.75502 17.0009 1.93078 16.186 1.31869 15.1555C0.772681 14.2345 0.437074 13.2365 0.259707 12.1923C-0.143716 9.81449 -0.100244 7.45041 0.55358 5.11715C0.889187 3.91542 1.44216 2.81812 2.31856 1.89885C3.23669 0.936787 4.36871 0.361603 5.6781 0.132213C6.85707 -0.0749216 8.03604 -0.0492437 9.18893 0.284569C11.206 0.866601 12.3694 2.24636 12.8893 4.20301C12.9623 4.48034 13.011 4.7645 13.0649 5.04525C13.0754 5.09661 13.0614 5.15139 13.058 5.23698C12.232 5.4133 11.4078 5.58962 10.5383 5.7745C10.4914 5.58962 10.4566 5.42015 10.4062 5.25752C10.2879 4.8792 10.1923 4.49061 10.0306 4.13112C9.4515 2.85749 8.34904 2.21726 6.92837 2.27889C5.73027 2.33195 4.80518 2.86092 4.12527 3.81785C3.581 4.58305 3.27321 5.44583 3.10628 6.35482C2.73415 8.38338 2.72198 10.4085 3.22104 12.4199C3.36363 12.9934 3.58447 13.5395 3.90443 14.0428C4.7391 15.3592 5.96676 15.8745 7.49872 15.6725C9.22197 15.4448 10.2914 14.3372 10.4861 12.6339C10.5348 12.2042 10.5435 11.7694 10.5731 11.2901H6.91793C6.82056 10.9614 6.79969 9.72034 6.87272 9.18281C7.1892 9.10236 12.6876 9.09037 13.1171 9.17425V17.6685C12.3868 17.6942 11.6599 17.6736 10.8878 17.6822C10.8339 17.0317 10.7835 16.4103 10.7331 15.7889L10.6479 15.7495H10.6444Z" fill="white"/>
<path d="M103.063 14.0226C103.105 13.8874 103.155 13.7539 103.188 13.6169C103.562 12.0745 103.931 10.5321 104.303 8.98976C104.569 7.88561 104.838 6.78317 105.11 5.68074C105.198 5.31953 105.204 5.31611 105.584 5.3144C106.193 5.31097 106.803 5.3144 107.452 5.3144C107.426 5.48045 107.419 5.60028 107.389 5.71326C106.391 9.52386 105.393 13.3345 104.393 17.1451C104.369 17.2375 104.345 17.3299 104.32 17.4224C104.28 17.5764 104.181 17.6432 104.016 17.6415C103.348 17.6364 102.681 17.6295 102.013 17.6449C101.738 17.6518 101.695 17.4789 101.646 17.2906C101.444 16.5082 101.246 15.7259 101.046 14.9436C100.564 13.0623 100.083 11.1809 99.5992 9.29961C99.5696 9.1832 99.5227 9.07193 99.4792 8.94183C99.274 9.01373 99.2949 9.19176 99.2618 9.31844C98.888 10.7341 98.5245 12.1516 98.1576 13.5673C97.8429 14.7861 97.5282 16.0032 97.2099 17.2221C97.1021 17.6381 97.0987 17.6381 96.6448 17.6381C96.144 17.6381 95.6432 17.6381 95.1424 17.6381C94.5216 17.6381 94.6103 17.6603 94.4729 17.1433C93.7095 14.2469 92.9531 11.3487 92.195 8.45052C91.9602 7.55009 91.722 6.65136 91.489 5.75092C91.4577 5.63452 91.4368 5.51469 91.4055 5.36575C91.5151 5.34521 91.6037 5.3144 91.6942 5.3144C92.3063 5.30926 92.9184 5.30926 93.5304 5.3144C93.8834 5.31611 93.9043 5.33323 93.9808 5.66191C94.4016 7.45936 94.819 9.25852 95.238 11.056C95.4537 11.9752 95.671 12.8928 95.8901 13.8104C95.9058 13.8737 95.9284 13.937 95.951 14.0089C96.1666 13.9747 96.1318 13.7984 96.1614 13.6888C96.5422 12.2474 96.9143 10.8026 97.2864 9.35952C97.5977 8.15437 97.9072 6.94922 98.2202 5.74407C98.3315 5.3144 98.3333 5.3144 98.7767 5.31269C99.2914 5.31097 99.8061 5.31097 100.321 5.31269C100.728 5.3144 100.731 5.31782 100.829 5.69785C101.246 7.34124 101.663 8.98462 102.079 10.628C102.334 11.6363 102.587 12.6446 102.842 13.6512C102.874 13.7744 102.924 13.8942 102.967 14.0158C102.999 14.0158 103.032 14.0175 103.063 14.0192V14.0226Z" fill="#EF681C"/>
<path d="M91.9081 17.6202H89.2302C89.1868 17.485 89.1381 17.36 89.1033 17.2317C88.766 15.9906 88.4321 14.7495 88.0947 13.5084C87.973 13.0599 87.9713 13.0564 87.5087 13.0564C85.8394 13.0564 84.1718 13.0564 82.5025 13.0564C82.0643 13.0564 82.0625 13.0599 81.946 13.4878C81.6191 14.6878 81.2939 15.8896 80.967 17.0913C80.934 17.2094 80.9218 17.3395 80.8627 17.4439C80.8157 17.5261 80.7114 17.6271 80.6297 17.6288C79.868 17.6425 79.1064 17.6374 78.2717 17.6374C79.9185 11.853 81.56 6.12682 83.2032 0.388672H86.954C88.5973 6.10628 90.244 11.8307 91.9081 17.6202ZM87.3661 10.9235C86.608 8.13141 85.8464 5.33423 85.0865 2.53877C85.0534 2.53877 85.0204 2.53877 84.9873 2.53877C84.9491 2.63292 84.9021 2.72365 84.8726 2.82122C84.1301 5.22981 82.7163 10.6205 82.7337 10.9714C83.158 11.0809 87.0184 11.0587 87.3661 10.9252V10.9235Z" fill="#EF681C"/>
<path d="M48.0811 0.335938H50.6929V6.21618C50.825 6.11346 50.8894 6.06895 50.945 6.0176C52.6404 4.43242 56.4225 4.41359 57.878 7.47439C58.3145 8.39195 58.5197 9.36428 58.5927 10.3657C58.6918 11.7112 58.6066 13.0448 58.2084 14.3441C57.9493 15.1915 57.5511 15.9686 56.9373 16.626C55.5879 18.0708 53.2595 18.4183 51.5502 17.4271C51.3711 17.3227 51.2006 17.2029 51.0407 17.0728C50.8807 16.9444 50.7398 16.7938 50.5399 16.6054C50.446 16.9752 50.3608 17.309 50.2703 17.66H48.1089C48.0289 17.3689 47.9976 0.984732 48.0776 0.335938H48.0811ZM50.6946 11.4339C50.6946 12.4182 50.6946 13.4043 50.6946 14.3886C50.6946 14.5683 50.6998 14.7293 50.8581 14.8696C51.2772 15.2377 51.7275 15.5509 52.2631 15.7307C53.4908 16.1432 54.5828 15.7615 55.2244 14.6539C55.4348 14.291 55.5931 13.8853 55.7009 13.4796C56.0052 12.3258 56.0209 11.1532 55.8435 9.97713C55.7565 9.39339 55.5914 8.82847 55.2836 8.3132C54.7167 7.36997 53.7568 6.94543 52.6613 7.13544C51.9953 7.25185 51.4406 7.56683 50.9346 7.99137C50.7624 8.13517 50.6859 8.29095 50.6894 8.51863C50.7016 9.48925 50.6946 10.4616 50.6946 11.4322V11.4339Z" fill="white"/>
<path d="M17.64 8.91893C16.9635 8.56458 16.3271 8.23076 15.6437 7.87299C15.8333 7.56656 15.9793 7.27212 16.1758 7.01534C17.0696 5.84443 18.3008 5.24015 19.7475 5.03815C20.6639 4.90976 21.5786 4.94571 22.4776 5.18023C24.3347 5.66469 25.3711 6.94858 25.4024 8.83847C25.4215 9.98713 25.4076 11.1375 25.4076 12.2879C25.4076 13.3287 25.3937 14.3678 25.4128 15.4086C25.425 16.1447 25.4807 16.8791 25.5189 17.6272C25.2824 17.6973 23.6513 17.7247 22.9593 17.6477C22.9036 17.3156 22.8462 16.9698 22.7767 16.559C22.6428 16.6737 22.5332 16.7661 22.4254 16.8585C21.0239 18.0688 18.8798 18.341 17.2765 17.5142C15.169 16.4271 14.7499 13.6026 16.4575 11.9729C17.0801 11.3772 17.8365 11.0057 18.659 10.7677C19.8849 10.4117 21.116 10.0744 22.3454 9.72693C22.4758 9.68927 22.6045 9.64647 22.7384 9.60539C22.7384 9.29725 22.768 9.00795 22.7332 8.7272C22.6323 7.92948 22.0863 7.36456 21.276 7.17455C19.9597 6.86641 18.5998 7.4125 17.8765 8.54061C17.8034 8.65359 17.7321 8.76829 17.6382 8.91893H17.64ZM22.7402 11.5227C21.8638 11.7846 21.0413 12.0277 20.2222 12.2742C20.024 12.3341 19.8205 12.3889 19.6362 12.4796C19.3284 12.632 19.0154 12.786 18.7372 12.9829C18.4016 13.2225 18.1999 13.5632 18.146 13.9809C17.9825 15.2083 18.9424 16.1413 20.2344 16.006C21.1265 15.9119 21.8707 15.5284 22.5089 14.919C22.6897 14.7478 22.7749 14.5664 22.7697 14.3079C22.7523 13.5033 22.7645 12.697 22.7628 11.8907C22.7628 11.7829 22.7506 11.675 22.7419 11.521L22.7402 11.5227Z" fill="white"/>
<path d="M117.99 17.5657C117.67 17.6599 115.947 17.6701 115.507 17.5777C115.442 17.2422 115.373 16.8895 115.291 16.465C115.109 16.6208 114.989 16.7286 114.863 16.8313C113.469 17.9714 111.893 18.2111 110.212 17.641C108.953 17.2148 108.205 16.2835 108.002 14.9894C107.8 13.7055 108.193 12.6116 109.242 11.7796C109.834 11.3089 110.511 10.999 111.238 10.7919C112.452 10.4461 113.667 10.1106 114.881 9.76821C115.314 9.64666 115.335 9.64153 115.307 9.21356C115.286 8.89002 115.249 8.55279 115.136 8.25321C114.834 7.45206 114.161 7.12509 113.349 7.06176C112.003 6.95391 110.979 7.49657 110.261 8.6127C110.217 8.67946 110.17 8.74451 110.101 8.84551C109.478 8.52026 108.869 8.20185 108.216 7.85948C108.358 7.60955 108.468 7.37674 108.616 7.1696C109.32 6.17159 110.297 5.54847 111.478 5.24376C112.641 4.94247 113.818 4.94419 114.983 5.23691C116.783 5.68885 117.828 7.01896 117.842 8.84894C117.851 10.1208 117.83 11.3928 117.847 12.6647C117.87 14.3012 117.74 15.9412 117.992 17.5674L117.99 17.5657ZM115.282 11.5023C115.157 11.5194 115.062 11.5212 114.973 11.5468C114.095 11.807 113.213 12.0518 112.345 12.3428C111.97 12.4695 111.61 12.6664 111.274 12.8804C110.902 13.1183 110.664 13.4727 110.589 13.9178C110.396 15.0664 111.189 16.0216 112.373 16.0542C113.457 16.0833 114.331 15.6313 115.084 14.8969C115.255 14.7292 115.321 14.546 115.319 14.3115C115.31 13.5035 115.317 12.6972 115.314 11.8892C115.314 11.7694 115.296 11.6495 115.284 11.5023H115.282Z" fill="#EF681C"/>
<path d="M74.1383 14.1057C74.8269 14.395 75.4982 14.6757 76.1937 14.9685C75.6234 16.2096 74.7748 17.1134 73.5158 17.5842C72.1734 18.0858 70.7979 18.1406 69.4277 17.7109C67.6644 17.1579 66.5967 15.9151 66.0925 14.2118C65.5065 12.2381 65.5812 10.2609 66.3133 8.32989C66.7863 7.08365 67.581 6.07537 68.8278 5.49334C70.3284 4.79147 71.8656 4.77607 73.3889 5.41801C74.4774 5.87679 75.1991 6.70533 75.6616 7.76497C76.0337 8.6209 76.1763 9.52305 76.2181 10.4423C76.2424 10.9593 76.2215 11.4763 76.2215 12.0395H68.3322C68.3322 12.3254 68.2939 12.5736 68.3409 12.8064C68.433 13.2737 68.5165 13.7531 68.7008 14.1896C69.1407 15.2372 69.9528 15.8569 71.1196 15.9288C72.2777 16.0007 73.2063 15.5642 73.841 14.5816C73.9366 14.4344 74.027 14.2837 74.1383 14.1057ZM68.3478 10.3139H73.7297C73.7627 9.58297 73.6688 8.90507 73.328 8.27168C72.9559 7.58009 72.3629 7.18294 71.5822 7.09221C70.4554 6.96211 69.5703 7.37467 68.9634 8.32475C68.586 8.91363 68.4122 9.56756 68.3478 10.3139Z" fill="white"/>
<path d="M137.924 11.9896C137.039 11.9896 136.179 11.9896 135.318 11.9896C134.457 11.9896 133.595 11.9861 132.732 11.9896C131.875 11.993 131.018 11.9707 130.117 12.0067C130.117 12.2857 130.105 12.5134 130.119 12.7411C130.16 13.3762 130.327 13.9787 130.64 14.5402C131.71 16.4541 134.365 16.3599 135.478 14.9357C135.655 14.7097 135.808 14.4649 136.001 14.1859C136.645 14.4307 137.286 14.7029 137.944 15.0024C137.519 15.9645 136.886 16.704 135.998 17.221C135.165 17.7072 134.248 17.8903 133.289 17.9194C130.668 18.0033 128.708 16.6612 127.978 14.1859C127.392 12.1984 127.481 10.2126 128.228 8.26969C128.533 7.47881 129 6.78551 129.649 6.22231C130.505 5.47765 131.51 5.0959 132.645 5.04455C133.342 5.01373 134.033 5.05139 134.704 5.2688C136.313 5.79092 137.238 6.9293 137.7 8.48025C138.022 9.55872 138.017 10.668 137.987 11.7773C137.987 11.8286 137.958 11.88 137.924 11.9878V11.9896ZM135.57 10.3582C135.594 10.2794 135.622 10.2281 135.622 10.1767C135.624 9.54331 135.549 8.92533 135.262 8.34672C134.939 7.69279 134.422 7.27339 133.706 7.09193C132.661 6.8283 131.584 7.19978 130.927 8.05057C130.532 8.56242 130.313 9.14616 130.2 9.7727C130.167 9.95416 130.155 10.1373 130.127 10.3564H135.568L135.57 10.3582Z" fill="#EF681C"/>
<path d="M63.3903 17.6634H60.8655C60.7733 17.3723 60.7316 1.24492 60.8202 0.377007C61.1228 0.28799 62.9591 0.274295 63.3921 0.3616V17.6634H63.3903Z" fill="white"/>
<path d="M120.513 5.35247C120.649 5.33877 120.77 5.31652 120.89 5.31652C121.405 5.3131 121.918 5.31138 122.433 5.31652C122.812 5.31994 122.838 5.34391 122.841 5.71025C122.847 6.17587 122.841 6.63979 122.841 7.10541C122.841 7.23894 122.841 7.37417 122.841 7.52139C123.066 7.52482 123.139 7.37589 123.236 7.27489C123.723 6.76475 124.248 6.29913 124.848 5.92081C125.49 5.51681 126.182 5.25147 126.942 5.17101C127.008 5.16416 127.077 5.17101 127.19 5.17101C127.265 5.92594 127.225 6.66547 127.22 7.42211C126.943 7.46662 126.714 7.50085 126.484 7.53851C125.171 7.75421 124.126 8.45778 123.154 9.29659C123.008 9.42327 123.015 9.58247 123.015 9.74681C123.015 10.69 123.015 11.6333 123.015 12.5765C123.015 14.1223 123.015 15.6664 123.015 17.2122C123.015 17.6385 123.012 17.6402 122.57 17.6419C122.014 17.6436 121.459 17.6436 120.902 17.6419C120.781 17.6419 120.661 17.6248 120.511 17.6128V5.35247H120.513Z" fill="#EF681C"/>
</svg>
