<svg width="140" height="40" viewBox="0 0 140 40" fill="none" xmlns="http://www.w3.org/2000/svg">
<path d="M53.6603 15.1902C53.7869 15.5067 53.6603 15.7598 53.3438 15.8231L50.6856 16.5826C50.3691 16.7092 50.1793 16.5826 50.116 16.2662C49.6729 14.937 48.7869 14.1775 47.2046 14.1775C44.6729 14.1775 43.8501 15.6332 43.8501 17.6586V22.2155C43.8501 24.1775 44.6729 25.6965 47.2046 25.6965C49.7362 25.6965 50.3691 24.7472 50.3691 22.6586V22.0889H47.6476C47.4577 22.0889 47.2679 21.9624 47.2679 21.7092V19.1775C47.2679 18.9244 47.3944 18.7978 47.6476 18.7978H53.6603C53.9134 18.7978 54.04 18.9244 54.04 19.1775V22.975C54.04 26.5826 51.3818 29.3041 47.2679 29.3041C43.1539 29.3041 40.116 26.3927 40.116 22.4054V17.5953C40.116 13.6079 42.3944 10.6965 47.2679 10.6965C52.1413 10.6965 53.0274 12.975 53.7236 15.1902M67.1413 19.7472V28.6079C67.1413 28.7978 67.0147 28.9877 66.7615 28.9877H64.04C63.7869 28.9877 63.6603 28.8611 63.6603 28.6079V27.1522C62.8375 28.4813 61.5717 29.2408 59.9261 29.2408C57.3944 29.2408 55.7489 27.5953 55.7489 25.0636C55.7489 22.532 57.2679 21.1396 61.0653 20.8864C61.8881 20.8231 62.7109 20.8231 63.5337 20.8864V19.8737C63.5337 18.5446 62.8375 18.0383 61.6982 18.0383C60.559 18.0383 60.1793 18.5446 59.8628 19.3041C59.7362 19.6206 59.6729 19.6206 59.3565 19.5573L56.635 18.8611C56.3818 18.7978 56.3185 18.6712 56.3818 18.4181C56.7615 16.456 58.597 15.0636 61.8248 15.0636C65.0527 15.0636 67.1413 16.7092 67.1413 19.7472ZM63.5337 24.3674V23.1016C62.7742 23.1016 62.078 23.1016 61.3818 23.1649C59.9894 23.3548 59.2932 23.7345 59.2932 24.8105C59.2932 25.8864 59.9261 26.2662 61.002 26.2662C62.078 26.2662 63.1539 25.6332 63.597 24.3674M76.8881 15.0636C78.597 15.0636 79.7362 16.0763 80.2425 17.532C81.2552 16.0763 82.4577 15.0636 84.1666 15.0636C85.8755 15.0636 87.9008 16.9624 87.9008 19.7472V28.5446C87.9008 28.7345 87.7109 28.9244 87.4577 28.9244H84.6096C84.3565 28.9244 84.1666 28.7978 84.1666 28.5446V20.3801C84.1666 19.1775 83.597 18.4181 82.6476 18.4181C81.6982 18.4181 80.8755 19.2408 80.559 20.5067V28.5446C80.559 28.7978 80.3691 28.9244 80.2425 28.9244H77.2046C77.0147 28.9244 76.8881 28.7978 76.8881 28.5446V20.3801C76.8881 19.1775 76.3185 18.4181 75.3691 18.4181C74.4198 18.4181 73.597 19.3041 73.2805 20.57V28.5446C73.2805 28.7345 73.1539 28.9244 72.9008 28.9244H69.9261C69.6729 28.9244 69.5463 28.7978 69.5463 28.5446V15.6332C69.5463 15.4434 69.6729 15.3168 69.9261 15.3168H72.7742C73.0274 15.3168 73.1539 15.5067 73.1539 15.6332V17.1522C73.9767 16.013 75.116 14.937 76.8881 14.937M103.407 15.3801C103.47 15.6965 103.407 15.9497 103.091 16.013L100.496 16.7725C100.179 16.8991 99.9894 16.7725 99.9261 16.456C99.5463 15.2535 98.9134 14.2408 97.078 14.2408C95.2425 14.2408 94.1033 15.6965 94.1033 17.7219V22.2788C94.1033 24.2408 94.9261 25.7598 97.078 25.7598C99.2299 25.7598 99.7362 24.6839 100.053 23.3548C100.116 23.0383 100.306 22.9117 100.622 23.0383L103.217 23.8611C103.534 23.9877 103.597 24.1775 103.534 24.494C102.901 27.1522 101.002 29.3041 97.0147 29.3041C93.0274 29.3041 90.3058 26.3927 90.3058 22.4054V17.5953C90.3058 13.6079 92.5843 10.6965 97.0147 10.6965C101.445 10.6965 102.711 12.7851 103.407 15.3801ZM116.445 19.7472V28.6079C116.445 28.7978 116.318 28.9877 116.065 28.9877H113.344C113.091 28.9877 112.964 28.8611 112.964 28.6079V27.1522C112.141 28.4813 110.875 29.2408 109.23 29.2408C106.698 29.2408 105.053 27.5953 105.053 25.0636C105.053 22.532 106.572 21.1396 110.369 20.8864C111.192 20.8231 112.015 20.8231 112.837 20.8864V19.8737C112.837 18.5446 112.141 18.0383 111.002 18.0383C109.863 18.0383 109.483 18.5446 109.167 19.3041C109.04 19.6206 108.977 19.6206 108.66 19.5573L105.939 18.8611C105.686 18.7978 105.622 18.6712 105.686 18.4181C106.065 16.456 107.901 15.0636 111.129 15.0636C114.356 15.0636 116.445 16.7092 116.445 19.7472ZM112.837 24.3674V23.1016C112.078 23.1016 111.382 23.1016 110.686 23.1649C109.293 23.3548 108.597 23.7345 108.597 24.8105C108.597 25.8864 109.23 26.2662 110.306 26.2662C111.382 26.2662 112.458 25.6332 112.901 24.3674M126.951 15.6332V18.2915C126.951 18.6079 126.825 18.7345 126.508 18.7345H126.129C124.167 18.7345 123.027 19.6206 122.648 21.0763V28.6079C122.648 28.8611 122.458 28.9877 122.331 28.9877H119.23C119.103 28.9877 118.913 28.8611 118.913 28.6079V15.6965C118.913 15.5067 119.04 15.3801 119.293 15.3801H122.078C122.394 15.3801 122.458 15.57 122.458 15.7598V17.5953C123.091 16.3927 124.293 15.1902 126.382 15.1902C128.47 15.1902 126.951 15.2535 126.951 15.6332ZM131.825 23.2915V23.7978C131.825 25.2535 132.584 26.2029 134.293 26.2029C136.002 26.2029 136.445 25.57 136.888 24.7472C137.078 24.3674 137.205 24.3041 137.584 24.494L139.546 25.5067C139.926 25.6965 139.989 25.8864 139.8 26.2662C138.977 28.1649 136.888 29.2408 134.293 29.2408C130.369 29.2408 128.281 26.8991 128.281 23.7345V20.57C128.281 17.4687 130.243 15.0636 134.23 15.0636C138.217 15.0636 139.926 17.4687 139.926 20.5067V22.6586C139.926 23.0383 139.8 23.2915 139.293 23.2915H131.825ZM131.825 20.4434V20.8864H136.572V20.4434C136.572 19.1143 135.812 18.1016 134.23 18.1016C132.648 18.1016 131.825 19.1143 131.825 20.4434Z" fill="white"/>
<path d="M17.0995 0H0.643839C0.327383 0 0.0742188 0.253165 0.0742188 0.506329V24.4937C0.0742188 33.038 7.03624 40 15.5805 40H17.0995C25.6438 40 32.6059 33.038 32.6059 24.4937V15.5063C32.6059 6.96203 25.6438 0 17.0995 0ZM27.6059 24.7468C27.6059 30.5696 23.3021 35 16.6565 35C10.0109 35 5.07422 30.3165 5.07422 23.924V16.1392C5.07422 9.74683 8.7451 5.06329 16.6565 5.06329C24.5679 5.06329 25.9603 8.73418 27.0995 12.3418C27.2894 12.9114 27.0995 13.2278 26.5932 13.3544L22.2894 14.6203C21.7831 14.8101 21.4666 14.6203 21.34 14.1139C20.6438 11.962 19.2514 10.7595 16.5932 10.7595C12.5426 10.7595 11.2135 13.1646 11.2135 16.3291V23.7342C11.2135 26.962 12.5426 29.3038 16.5932 29.3038C20.6438 29.3038 21.6565 27.7848 21.6565 24.3671V23.4177H17.2261C16.8464 23.4177 16.6565 23.2278 16.6565 22.7848V18.6709C16.6565 18.2911 16.9097 18.038 17.2261 18.038H26.9097C27.2894 18.038 27.5426 18.2278 27.5426 18.6076V24.6835L27.6059 24.7468Z" fill="#2E008B"/>
<path d="M40.9387 35.7596V32.2786C40.9387 32.2786 40.9387 32.2153 41.002 32.2153H43.0273C43.0273 32.2153 43.0906 32.2153 43.0906 32.2786V32.8482C43.0906 32.8482 43.0906 32.9115 43.0273 32.9115H41.6982V33.7975H42.9007C42.9007 33.7975 42.964 33.7975 42.964 33.8608V34.3672C42.964 34.3672 42.964 34.4305 42.9007 34.4305H41.6982V35.6963C41.6982 35.6963 41.6982 35.7596 41.6349 35.7596H41.002C41.002 35.7596 40.9387 35.7596 40.9387 35.6963V35.7596ZM43.4704 34.8102V34.2406C43.4704 33.4811 43.9134 33.1013 44.6729 33.1013C45.4324 33.1013 45.8754 33.5444 45.8754 34.2406V34.8102C45.8754 35.5064 45.4324 35.9494 44.6729 35.9494C43.9134 35.9494 43.4704 35.5697 43.4704 34.8102ZM44.6729 35.2532C44.9894 35.2532 45.1159 35.0634 45.1159 34.7469V34.1773C45.1159 33.8608 44.9261 33.671 44.6729 33.671C44.4197 33.671 44.2299 33.8608 44.2299 34.1773V34.7469C44.2299 35.0634 44.3564 35.2532 44.6729 35.2532ZM48.7868 33.2279V35.8229C48.7868 35.8229 48.7868 35.8862 48.7235 35.8862H48.1539C48.1539 35.8862 48.0906 35.8862 48.0906 35.8229V35.5697C47.9007 35.8229 47.6476 35.9494 47.3311 35.9494C46.7615 35.9494 46.5083 35.5697 46.5083 34.8735V33.2279C46.5083 33.2279 46.5083 33.1646 46.5716 33.1646H47.2045C47.2045 33.1646 47.2678 33.1646 47.2678 33.2279V34.8735C47.2678 35.1267 47.3944 35.3165 47.6476 35.3165C47.9007 35.3165 48.0273 35.1267 48.1539 34.9368V33.2912C48.1539 33.2912 48.1539 33.2279 48.2172 33.2279H48.8501C48.8501 33.2279 48.9134 33.2279 48.9134 33.2912L48.7868 33.2279ZM49.4197 35.7596V33.1646C49.4197 33.1646 49.4197 33.1013 49.483 33.1013H50.0526C50.0526 33.1013 50.1159 33.1013 50.1159 33.1646V33.4178C50.3058 33.1646 50.559 33.0381 50.8754 33.0381C51.4451 33.0381 51.6982 33.4178 51.6982 34.114V35.7596C51.6982 35.7596 51.6982 35.8229 51.6349 35.8229H51.002C51.002 35.8229 50.9387 35.8229 50.9387 35.7596V34.114C50.9387 33.8608 50.8121 33.671 50.559 33.671C50.3058 33.671 50.1792 33.8608 50.0526 34.0507V35.6963C50.0526 35.6963 50.0526 35.7596 49.9894 35.7596H49.3564C49.3564 35.7596 49.2932 35.7596 49.2932 35.6963L49.4197 35.7596ZM52.3311 34.7469V34.1773C52.3311 33.4811 52.7109 33.0381 53.2805 33.0381C53.8501 33.0381 53.8501 33.1646 53.9767 33.3545V32.0887C53.9767 32.0887 53.9767 32.0254 54.04 32.0254H54.6729C54.6729 32.0254 54.7362 32.0254 54.7362 32.0887V35.6963C54.7362 35.6963 54.7362 35.7596 54.6729 35.7596H54.1033C54.1033 35.7596 54.04 35.7596 54.04 35.6963V35.4431C53.9134 35.6963 53.6602 35.8229 53.2805 35.8229C52.7109 35.8229 52.3311 35.3798 52.3311 34.6836V34.7469ZM53.5337 35.2532C53.8501 35.2532 54.04 35.0634 54.04 34.7469V34.1773C54.04 33.8608 53.8501 33.671 53.5337 33.671C53.2172 33.671 53.0906 33.8608 53.0906 34.1773V34.7469C53.0906 35.0634 53.2805 35.2532 53.5337 35.2532ZM55.3691 34.8102V34.2406C55.3691 33.4811 55.8121 33.1013 56.5083 33.1013C57.2045 33.1013 57.6476 33.5444 57.6476 34.2406V34.6836C57.6476 34.6836 57.6476 34.7469 57.5843 34.7469H56.002C56.002 35.1267 56.1919 35.3165 56.5083 35.3165C56.8248 35.3165 56.8881 35.1899 56.9514 35.0634H57.0147L57.521 35.1899V35.2532C57.3944 35.6963 57.0147 35.9494 56.445 35.9494C55.8754 35.9494 55.2425 35.5697 55.2425 34.8102H55.3691ZM57.0147 34.2406C57.0147 33.8608 56.8248 33.671 56.5716 33.671C56.3185 33.671 56.0653 33.8608 56.0653 34.1773C56.0653 34.2406 57.0147 34.2406 57.0147 34.2406ZM58.2805 35.7596V33.1646C58.2805 33.1646 58.2805 33.1013 58.3438 33.1013H58.9134C58.9134 33.1013 58.9767 33.1013 58.9767 33.1646V33.4811C59.1033 33.2279 59.3564 33.0381 59.7995 33.0381C59.7995 33.0381 59.8628 33.038 59.8628 33.1013V33.671C59.8628 33.671 59.8628 33.7343 59.7995 33.7343C59.3564 33.7343 59.1033 33.7975 58.9767 34.114V35.6963C58.9767 35.6963 58.9767 35.7596 58.9134 35.7596H58.2805C58.2805 35.7596 58.2172 35.7596 58.2172 35.6963L58.2805 35.7596ZM61.3818 34.8102V34.2406C61.3818 33.4811 61.8248 33.1013 62.5843 33.1013C63.3438 33.1013 63.7868 33.5444 63.7868 34.2406V34.8102C63.7868 35.5064 63.3438 35.9494 62.5843 35.9494C61.8248 35.9494 61.3818 35.5697 61.3818 34.8102ZM62.5843 35.2532C62.9007 35.2532 63.0273 35.0634 63.0273 34.7469V34.1773C63.0273 33.8608 62.8375 33.671 62.5843 33.671C62.3311 33.671 62.1413 33.8608 62.1413 34.1773V34.7469C62.1413 35.0634 62.2678 35.2532 62.5843 35.2532ZM65.4324 32.0887H65.8121C65.8121 32.0887 65.8754 32.0887 65.8754 32.152V32.595C65.8754 32.595 65.8754 32.6583 65.8121 32.6583H65.559C65.3691 32.6583 65.3058 32.7216 65.3058 32.9115V33.1013H65.8121C65.8121 33.1013 65.8754 33.1013 65.8754 33.1646V33.6077C65.8754 33.6077 65.8754 33.671 65.8121 33.671H65.3058V35.6963C65.3058 35.6963 65.3058 35.7596 65.2425 35.7596H64.6096C64.6096 35.7596 64.5463 35.7596 64.5463 35.6963V33.671H64.1666C64.1666 33.671 64.1033 33.671 64.1033 33.6077V33.1646C64.1033 33.1646 64.1033 33.1013 64.1666 33.1013H64.5463V32.9115C64.5463 32.3418 64.8628 32.0887 65.4324 32.0887ZM67.5843 35.0634V33.7343H67.2678C67.2678 33.7343 67.2045 33.7343 67.2045 33.671V33.2279C67.2045 33.2279 67.2045 33.1646 67.2678 33.1646H67.5843V32.595C67.5843 32.595 67.5843 32.5317 67.6476 32.5317H68.2172C68.2172 32.5317 68.2805 32.5317 68.2805 32.595V33.1646H68.7868C68.7868 33.1646 68.8501 33.1646 68.8501 33.2279V33.671C68.8501 33.671 68.8501 33.7343 68.7868 33.7343H68.2805V34.9368C68.2805 35.1267 68.4071 35.1899 68.5337 35.1899H68.7868C68.7868 35.1899 68.8501 35.1899 68.8501 35.2532V35.7596C68.8501 35.7596 68.8501 35.8229 68.7868 35.8229H68.4071C67.8375 35.8229 67.521 35.5064 67.521 35.0001L67.5843 35.0634ZM69.483 35.7596V32.152C69.483 32.152 69.483 32.0887 69.5463 32.0887H70.1792C70.1792 32.0887 70.2425 32.0887 70.2425 32.152V33.4178C70.4324 33.1646 70.6856 33.0381 70.9387 33.0381C71.5083 33.0381 71.7615 33.4178 71.7615 34.114V35.7596C71.7615 35.7596 71.7615 35.8229 71.6982 35.8229H71.0653C71.0653 35.8229 71.002 35.8229 71.002 35.7596V34.114C71.002 33.8608 70.8754 33.671 70.6223 33.671C70.3691 33.671 70.2425 33.8608 70.1159 34.0507V35.6963C70.1159 35.6963 70.1159 35.7596 70.0526 35.7596H69.4197C69.4197 35.7596 69.3564 35.7596 69.3564 35.6963L69.483 35.7596ZM72.3311 34.8102V34.2406C72.3311 33.4811 72.7742 33.1013 73.4704 33.1013C74.1666 33.1013 74.6096 33.5444 74.6096 34.2406V34.6836C74.6096 34.6836 74.6096 34.7469 74.5463 34.7469H72.964C72.964 35.1267 73.1539 35.3165 73.4704 35.3165C73.7868 35.3165 73.8501 35.1899 73.9134 35.0634H73.9767L74.483 35.1899V35.2532C74.3564 35.6963 73.9767 35.9494 73.4071 35.9494C72.8375 35.9494 72.2045 35.5697 72.2045 34.8102H72.3311ZM73.9767 34.2406C73.9767 33.8608 73.7868 33.671 73.5337 33.671C73.2805 33.671 73.0273 33.8608 73.0273 34.1773C73.0273 34.2406 73.9767 34.2406 73.9767 34.2406ZM76.5716 35.7596V32.2786C76.5716 32.2786 76.5716 32.2153 76.6349 32.2153H77.5843L78.2805 33.8608C78.4071 34.2406 78.5337 34.6203 78.6602 34.9368V32.2786C78.6602 32.2786 78.6602 32.2153 78.7235 32.2153H79.2931C79.2931 32.2153 79.3564 32.2153 79.3564 32.2786V35.7596C79.3564 35.7596 79.3564 35.8229 79.2931 35.8229H78.4071L77.6476 34.1773C77.521 33.7975 77.3311 33.4178 77.2678 33.1013V35.8229C77.2678 35.8229 77.2678 35.8862 77.2045 35.8862H76.6349C76.6349 35.8862 76.5716 35.8862 76.5716 35.8229V35.7596ZM81.5716 35.7596V35.4431C81.3818 35.6963 81.1286 35.8862 80.8121 35.8862C80.3058 35.8862 79.9894 35.5697 79.9894 35.0634C79.9894 34.557 80.3058 34.2406 81.1286 34.2406H81.5083V34.0507C81.5083 33.7975 81.3818 33.671 81.1286 33.671C80.8754 33.671 80.8121 33.7975 80.7488 33.9241H80.6856L80.1159 33.7975V33.7343C80.2425 33.3545 80.559 33.0381 81.1919 33.0381C81.8248 33.0381 82.2678 33.3545 82.2678 33.9874V35.7596C82.2678 35.7596 82.2678 35.8229 82.2045 35.8229H81.6349C81.6349 35.8229 81.5716 35.8229 81.5716 35.7596ZM81.002 35.3165C81.2552 35.3165 81.445 35.1899 81.5083 34.9368V34.6836H81.1286C80.8121 34.6836 80.6856 34.8102 80.6856 35.0001C80.6856 35.1899 80.8121 35.3165 81.002 35.3165ZM83.0906 35.0634V33.7343H82.7742C82.7742 33.7343 82.7109 33.7343 82.7109 33.671V33.2279C82.7109 33.2279 82.7109 33.1646 82.7742 33.1646H83.0906V32.595C83.0906 32.595 83.0906 32.5317 83.1539 32.5317H83.7235C83.7235 32.5317 83.7868 32.5317 83.7868 32.595V33.1646H84.2932C84.2932 33.1646 84.3564 33.1646 84.3564 33.2279V33.671C84.3564 33.671 84.3564 33.7343 84.2932 33.7343H83.7868V34.9368C83.7868 35.1267 83.9134 35.1899 84.04 35.1899H84.2932C84.2932 35.1899 84.3564 35.1899 84.3564 35.2532V35.7596C84.3564 35.7596 84.3564 35.8229 84.2932 35.8229H83.9134C83.3438 35.8229 83.0273 35.5064 83.0273 35.0001L83.0906 35.0634ZM84.9261 32.7216V32.2153C84.9261 32.2153 84.9261 32.152 84.9894 32.152H85.6223C85.6223 32.152 85.6856 32.152 85.6856 32.2153V32.7216C85.6856 32.7216 85.6856 32.7849 85.6223 32.7849H84.9894C84.9894 32.7849 84.9261 32.7849 84.9261 32.7216ZM84.9261 35.7596V33.1646C84.9261 33.1646 84.9261 33.1013 84.9894 33.1013H85.6223C85.6223 33.1013 85.6856 33.1013 85.6856 33.1646V35.7596C85.6856 35.7596 85.6856 35.8229 85.6223 35.8229H84.9894C84.9894 35.8229 84.9261 35.8229 84.9261 35.7596ZM86.2552 34.8102V34.2406C86.2552 33.4811 86.6982 33.1013 87.4577 33.1013C88.2172 33.1013 88.6602 33.5444 88.6602 34.2406V34.8102C88.6602 35.5064 88.2172 35.9494 87.4577 35.9494C86.6982 35.9494 86.2552 35.5697 86.2552 34.8102ZM87.4577 35.2532C87.7742 35.2532 87.9007 35.0634 87.9007 34.7469V34.1773C87.9007 33.8608 87.7109 33.671 87.4577 33.671C87.2045 33.671 87.0147 33.8608 87.0147 34.1773V34.7469C87.0147 35.0634 87.1413 35.2532 87.4577 35.2532ZM89.2299 35.7596V33.1646C89.2299 33.1646 89.2299 33.1013 89.2932 33.1013H89.8628C89.8628 33.1013 89.9261 33.1013 89.9261 33.1646V33.4178C90.1159 33.1646 90.3691 33.0381 90.6856 33.0381C91.2552 33.0381 91.5083 33.4178 91.5083 34.114V35.7596C91.5083 35.7596 91.5083 35.8229 91.445 35.8229H90.8121C90.8121 35.8229 90.7488 35.8229 90.7488 35.7596V34.114C90.7488 33.8608 90.6223 33.671 90.3691 33.671C90.1159 33.671 89.9893 33.8608 89.8628 34.0507V35.6963C89.8628 35.6963 89.8628 35.7596 89.7995 35.7596H89.1666C89.1666 35.7596 89.1033 35.7596 89.1033 35.6963L89.2299 35.7596ZM93.6602 35.7596V35.4431C93.4704 35.6963 93.2172 35.8862 92.9007 35.8862C92.3944 35.8862 92.078 35.5697 92.078 35.0634C92.078 34.557 92.3944 34.2406 93.2172 34.2406H93.597V34.0507C93.597 33.7975 93.4704 33.671 93.2172 33.671C92.964 33.671 92.9007 33.7975 92.8375 33.9241H92.7742L92.2045 33.7975V33.7343C92.3311 33.3545 92.6476 33.0381 93.2805 33.0381C93.9134 33.0381 94.3564 33.3545 94.3564 33.9874V35.7596C94.3564 35.7596 94.3564 35.8229 94.2931 35.8229H93.7235C93.7235 35.8229 93.6602 35.8229 93.6602 35.7596ZM93.1539 35.3165C93.4071 35.3165 93.5969 35.1899 93.6602 34.9368V34.6836H93.2805C92.964 34.6836 92.8375 34.8102 92.8375 35.0001C92.8375 35.1899 92.964 35.3165 93.1539 35.3165ZM95.0527 35.7596V32.152C95.0527 32.152 95.0526 32.0887 95.1159 32.0887H95.7488C95.7488 32.0887 95.8121 32.0887 95.8121 32.152V35.7596C95.8121 35.7596 95.8121 35.8229 95.7488 35.8229H95.1159C95.1159 35.8229 95.0527 35.8229 95.0527 35.7596ZM97.6476 34.557V33.6077C97.6476 32.7216 98.1539 32.2153 99.04 32.2153C99.9261 32.2153 100.243 32.6583 100.369 33.1646V33.2279L99.7995 33.4178H99.7362C99.6729 33.1646 99.5463 32.9748 99.1033 32.9748C98.6602 32.9748 98.4704 33.2912 98.4704 33.671V34.6203C98.4704 35.0001 98.6602 35.3165 99.1033 35.3165C99.5463 35.3165 99.7362 35.0001 99.7362 34.6203H99.1666C99.1666 34.6203 99.1033 34.6203 99.1033 34.557V34.0507C99.1033 34.0507 99.1033 33.9874 99.1666 33.9874H100.369C100.369 33.9874 100.432 33.9874 100.432 34.0507V34.6836C100.432 35.4431 99.9893 36.076 99.04 36.076C98.0906 36.076 97.6476 35.5064 97.6476 34.6836V34.557ZM102.458 35.7596V35.4431C102.268 35.6963 102.015 35.8862 101.698 35.8862C101.192 35.8862 100.875 35.5697 100.875 35.0634C100.875 34.557 101.192 34.2406 102.015 34.2406H102.394V34.0507C102.394 33.7975 102.268 33.671 102.015 33.671C101.762 33.671 101.698 33.7975 101.635 33.9241H101.572L101.002 33.7975V33.7343C101.129 33.3545 101.445 33.0381 102.078 33.0381C102.711 33.0381 103.154 33.3545 103.154 33.9874V35.7596C103.154 35.7596 103.154 35.8229 103.091 35.8229H102.521C102.521 35.8229 102.458 35.8229 102.458 35.7596ZM101.951 35.3165C102.205 35.3165 102.394 35.1899 102.458 34.9368V34.6836H102.078C101.762 34.6836 101.635 34.8102 101.635 35.0001C101.635 35.1899 101.762 35.3165 101.951 35.3165ZM103.85 35.7596V33.1646C103.85 33.1646 103.85 33.1013 103.913 33.1013H104.483C104.483 33.1013 104.546 33.1013 104.546 33.1646V33.4178C104.736 33.1646 104.926 33.0381 105.243 33.0381C105.559 33.0381 105.812 33.1646 105.939 33.4811C106.129 33.2279 106.382 33.0381 106.698 33.0381C107.205 33.0381 107.521 33.4178 107.521 34.114V35.7596C107.521 35.7596 107.521 35.8229 107.458 35.8229H106.825C106.825 35.8229 106.762 35.8229 106.762 35.7596V34.114C106.762 33.8608 106.635 33.671 106.445 33.671C106.255 33.671 106.065 33.8608 106.002 34.0507V35.6963C106.002 35.6963 106.002 35.7596 105.939 35.7596H105.306C105.306 35.7596 105.243 35.7596 105.243 35.6963V34.0507C105.243 33.7975 105.116 33.6077 104.926 33.6077C104.736 33.6077 104.546 33.7975 104.483 33.9874V35.633C104.483 35.633 104.483 35.6963 104.42 35.6963H103.787C103.787 35.6963 103.724 35.6963 103.724 35.633L103.85 35.7596ZM108.913 35.5064V35.7596C108.913 35.7596 108.913 35.8229 108.85 35.8229H108.28C108.28 35.8229 108.217 35.8229 108.217 35.7596V32.152C108.217 32.152 108.217 32.0887 108.28 32.0887H108.913C108.913 32.0887 108.977 32.0887 108.977 32.152V33.4178C109.103 33.1646 109.42 33.0381 109.736 33.0381C110.306 33.0381 110.686 33.4811 110.686 34.1773V34.7469C110.686 35.4431 110.306 35.8862 109.736 35.8862C109.167 35.8862 109.167 35.7596 108.977 35.5064H108.913ZM109.42 35.2532C109.673 35.2532 109.863 35.0634 109.863 34.7469V34.1773C109.863 33.8608 109.673 33.671 109.42 33.671C109.167 33.671 108.913 33.8608 108.913 34.1773V34.7469C108.913 35.0634 109.103 35.2532 109.42 35.2532ZM111.192 35.7596V32.152C111.192 32.152 111.192 32.0887 111.255 32.0887H111.888C111.888 32.0887 111.951 32.0887 111.951 32.152V35.7596C111.951 35.7596 111.951 35.8229 111.888 35.8229H111.255C111.255 35.8229 111.192 35.8229 111.192 35.7596ZM112.584 32.7216V32.2153C112.584 32.2153 112.584 32.152 112.648 32.152H113.28C113.28 32.152 113.344 32.152 113.344 32.2153V32.7216C113.344 32.7216 113.344 32.7849 113.28 32.7849H112.648C112.648 32.7849 112.584 32.7849 112.584 32.7216ZM112.584 35.7596V33.1646C112.584 33.1646 112.584 33.1013 112.648 33.1013H113.28C113.28 33.1013 113.344 33.1013 113.344 33.1646V35.7596C113.344 35.7596 113.344 35.8229 113.28 35.8229H112.648C112.648 35.8229 112.584 35.8229 112.584 35.7596ZM114.04 35.7596V33.1646C114.04 33.1646 114.04 33.1013 114.103 33.1013H114.673C114.673 33.1013 114.736 33.1013 114.736 33.1646V33.4178C114.926 33.1646 115.179 33.0381 115.496 33.0381C116.065 33.0381 116.318 33.4178 116.318 34.114V35.7596C116.318 35.7596 116.318 35.8229 116.255 35.8229H115.622C115.622 35.8229 115.559 35.8229 115.559 35.7596V34.114C115.559 33.8608 115.432 33.671 115.179 33.671C114.926 33.671 114.799 33.8608 114.673 34.0507V35.6963C114.673 35.6963 114.673 35.7596 114.61 35.7596H113.977C113.977 35.7596 113.913 35.7596 113.913 35.6963L114.04 35.7596ZM116.825 36.2026C116.825 35.9494 116.951 35.7596 117.268 35.633C117.141 35.5064 117.078 35.3798 117.078 35.2532C117.078 35.1267 117.141 34.9368 117.331 34.8735C117.078 34.6836 116.888 34.4305 116.888 34.114C116.888 33.6077 117.205 33.1646 117.964 33.1646H119.23C119.23 33.1646 119.293 33.1646 119.293 33.2279V33.671C119.293 33.671 119.293 33.7343 119.23 33.7343H118.85C118.977 33.8608 119.04 33.9874 119.04 34.2406C119.04 34.6836 118.724 35.0634 118.027 35.0634H117.901C117.774 35.0634 117.711 35.0634 117.711 35.1899C117.711 35.3165 117.711 35.3165 117.901 35.3165H118.407C119.103 35.3165 119.356 35.633 119.356 36.076C119.356 36.5191 118.977 36.9621 118.027 36.9621C117.078 36.9621 116.825 36.6456 116.825 36.2659V36.2026ZM118.027 36.3925C118.47 36.3925 118.597 36.2659 118.597 36.076C118.597 35.8862 118.534 35.8229 118.28 35.8229H117.774C117.521 35.8229 117.458 35.9494 117.458 36.076C117.458 36.2026 117.584 36.3925 118.027 36.3925ZM117.964 34.4937C118.217 34.4937 118.407 34.3672 118.407 34.0507C118.407 33.7343 118.28 33.671 117.964 33.671C117.648 33.671 117.521 33.7975 117.521 34.0507C117.521 34.3039 117.648 34.4937 117.964 34.4937ZM123.091 35.7596V34.3672H121.825V35.7596C121.825 35.7596 121.825 35.8229 121.762 35.8229H121.129C121.129 35.8229 121.065 35.8229 121.065 35.7596V32.2786C121.065 32.2786 121.065 32.2153 121.129 32.2153H121.762C121.762 32.2153 121.825 32.2153 121.825 32.2786V33.671H123.091V32.2786C123.091 32.2786 123.091 32.2153 123.154 32.2153H123.787C123.787 32.2153 123.85 32.2153 123.85 32.2786V35.7596C123.85 35.7596 123.85 35.8229 123.787 35.8229H123.154C123.154 35.8229 123.091 35.8229 123.091 35.7596ZM124.483 34.8102V34.2406C124.483 33.4811 124.926 33.1013 125.622 33.1013C126.318 33.1013 126.762 33.5444 126.762 34.2406V34.6836C126.762 34.6836 126.762 34.7469 126.698 34.7469H125.116C125.116 35.1267 125.306 35.3165 125.622 35.3165C125.939 35.3165 126.002 35.1899 126.065 35.0634H126.129L126.635 35.1899V35.2532C126.508 35.6963 126.129 35.9494 125.559 35.9494C124.989 35.9494 124.356 35.5697 124.356 34.8102H124.483ZM126.129 34.2406C126.129 33.8608 125.939 33.671 125.686 33.671C125.432 33.671 125.179 33.8608 125.179 34.1773C125.179 34.2406 126.129 34.2406 126.129 34.2406ZM127.394 35.7596V32.152C127.394 32.152 127.394 32.0887 127.458 32.0887H128.091C128.091 32.0887 128.154 32.0887 128.154 32.152V35.7596C128.154 35.7596 128.154 35.8229 128.091 35.8229H127.458C127.458 35.8229 127.394 35.8229 127.394 35.7596ZM128.85 36.7722V33.2279C128.85 33.2279 128.85 33.1646 128.913 33.1646H129.483C129.483 33.1646 129.546 33.1646 129.546 33.2279V33.4811C129.673 33.2279 129.989 33.1013 130.306 33.1013C130.875 33.1013 131.255 33.5444 131.255 34.2406V34.8102C131.255 35.5064 130.875 35.9494 130.306 35.9494C129.736 35.9494 129.736 35.8229 129.61 35.633V36.8355C129.61 36.8355 129.61 36.8988 129.546 36.8988H128.913C128.913 36.8988 128.85 36.8988 128.85 36.8355V36.7722ZM130.053 35.2532C130.306 35.2532 130.496 35.0634 130.496 34.7469V34.1773C130.496 33.8608 130.306 33.671 130.053 33.671C129.799 33.671 129.546 33.8608 129.546 34.1773V34.7469C129.546 35.0634 129.736 35.2532 130.053 35.2532ZM131.825 35.7596V32.152C131.825 32.152 131.825 32.0887 131.888 32.0887H132.521C132.521 32.0887 132.584 32.0887 132.584 32.152V35.7596C132.584 35.7596 132.584 35.8229 132.521 35.8229H131.888C131.888 35.8229 131.825 35.8229 131.825 35.7596ZM133.28 32.7216V32.2153C133.28 32.2153 133.28 32.152 133.344 32.152H133.977C133.977 32.152 134.04 32.152 134.04 32.2153V32.7216C134.04 32.7216 134.04 32.7849 133.977 32.7849H133.344C133.344 32.7849 133.28 32.7849 133.28 32.7216ZM133.28 35.7596V33.1646C133.28 33.1646 133.28 33.1013 133.344 33.1013H133.977C133.977 33.1013 134.04 33.1013 134.04 33.1646V35.7596C134.04 35.7596 134.04 35.8229 133.977 35.8229H133.344C133.344 35.8229 133.28 35.8229 133.28 35.7596ZM134.673 35.7596V33.1646C134.673 33.1646 134.673 33.1013 134.736 33.1013H135.306C135.306 33.1013 135.369 33.1013 135.369 33.1646V33.4178C135.559 33.1646 135.812 33.0381 136.129 33.0381C136.698 33.0381 136.951 33.4178 136.951 34.114V35.7596C136.951 35.7596 136.951 35.8229 136.888 35.8229H136.255C136.255 35.8229 136.192 35.8229 136.192 35.7596V34.114C136.192 33.8608 136.065 33.671 135.812 33.671C135.559 33.671 135.432 33.8608 135.306 34.0507V35.6963C135.306 35.6963 135.306 35.7596 135.243 35.7596H134.61C134.61 35.7596 134.546 35.7596 134.546 35.6963L134.673 35.7596ZM137.584 34.8102V34.2406C137.584 33.4811 138.027 33.1013 138.724 33.1013C139.42 33.1013 139.863 33.5444 139.863 34.2406V34.6836C139.863 34.6836 139.863 34.7469 139.799 34.7469H138.217C138.217 35.1267 138.407 35.3165 138.724 35.3165C139.04 35.3165 139.103 35.1899 139.167 35.0634H139.23L139.736 35.1899V35.2532C139.61 35.6963 139.23 35.9494 138.66 35.9494C138.091 35.9494 137.458 35.5697 137.458 34.8102H137.584ZM139.23 34.2406C139.23 33.8608 139.04 33.671 138.787 33.671C138.534 33.671 138.28 33.8608 138.28 34.1773C138.28 34.2406 139.23 34.2406 139.23 34.2406Z" fill="white"/>
</svg>
