<svg width="33" height="32" viewBox="0 0 33 32" fill="none" xmlns="http://www.w3.org/2000/svg">
<path opacity="0.4" d="M14.8333 3.26664C15.7533 2.47997 17.26 2.47997 18.1933 3.26664L20.3 5.07997C20.7 5.42664 21.4467 5.70664 21.98 5.70664H24.2467C25.66 5.70664 26.82 6.86664 26.82 8.27997V10.5466C26.82 11.0666 27.1 11.8266 27.4467 12.2266L29.26 14.3333C30.0467 15.2533 30.0467 16.76 29.26 17.6933L27.4467 19.8C27.1 20.2 26.82 20.9466 26.82 21.48V23.7466C26.82 25.16 25.66 26.32 24.2467 26.32H21.98C21.46 26.32 20.7 26.6 20.3 26.9466L18.1933 28.76C17.2733 29.5466 15.7667 29.5466 14.8333 28.76L12.7267 26.9466C12.3267 26.6 11.58 26.32 11.0467 26.32H8.74001C7.32667 26.32 6.16667 25.16 6.16667 23.7466V21.4666C6.16667 20.9466 5.88667 20.2 5.55334 19.8L3.75334 17.68C2.98001 16.76 2.98001 15.2666 3.75334 14.3466L5.55334 12.2266C5.88667 11.8266 6.16667 11.08 6.16667 10.56V8.26664C6.16667 6.8533 7.32667 5.6933 8.74001 5.6933H11.0467C11.5667 5.6933 12.3267 5.4133 12.7267 5.06664L14.8333 3.26664Z" fill="white"/>
<path d="M14.8867 20.2267C14.62 20.2267 14.3667 20.12 14.18 19.9334L10.9533 16.7067C10.5667 16.32 10.5667 15.68 10.9533 15.2934C11.34 14.9067 11.98 14.9067 12.3667 15.2934L14.8867 17.8134L20.62 12.08C21.0067 11.6934 21.6467 11.6934 22.0333 12.08C22.42 12.4667 22.42 13.1067 22.0333 13.4934L15.5933 19.9334C15.4067 20.12 15.1533 20.2267 14.8867 20.2267Z" fill="white"/>
</svg>
