<svg width="32" height="32" viewBox="0 0 32 32" fill="none" xmlns="http://www.w3.org/2000/svg">
<path opacity="0.4" d="M22.6667 29.3333H9.33333C6.4 29.3333 4 26.9333 4 24V7.99996C4 5.06663 6.4 2.66663 9.33333 2.66663H22.6667C25.6 2.66663 28 5.06663 28 7.99996V24C28 26.9333 25.6 29.3333 22.6667 29.3333Z" fill="white"/>
<path d="M21.6667 14.6666H10.3333C9.05333 14.6666 8 13.6133 8 12.3333V8.99996C8 7.71996 9.05333 6.66663 10.3333 6.66663H21.6667C22.9467 6.66663 24 7.71996 24 8.99996V12.3333C24 13.6133 22.9467 14.6666 21.6667 14.6666Z" fill="white"/>
<path d="M14.4799 22.7733L13.6132 21.9066L14.4399 21.0799C14.8266 20.6933 14.8266 20.0533 14.4399 19.6666C14.0532 19.2799 13.4132 19.2799 13.0266 19.6666L12.1999 20.4932L11.4133 19.7066C11.0266 19.32 10.3866 19.32 9.99992 19.7066C9.61325 20.0933 9.61325 20.7333 9.99992 21.12L10.7866 21.9066L9.95992 22.7332C9.57326 23.1199 9.57326 23.7599 9.95992 24.1466C10.1599 24.3466 10.4133 24.4399 10.6666 24.4399C10.9199 24.4399 11.1733 24.3466 11.3733 24.1466L12.1999 23.3199L13.0666 24.1866C13.2666 24.3866 13.5199 24.4799 13.7732 24.4799C14.0266 24.4799 14.2799 24.3866 14.4799 24.1866C14.8666 23.7999 14.8666 23.1599 14.4799 22.7733Z" fill="white"/>
<path d="M22.0134 21.7734C21.2801 21.7734 20.6667 21.1734 20.6667 20.44C20.6667 19.7067 21.2534 19.1067 21.9867 19.1067H22.0134C22.7468 19.1067 23.3468 19.7067 23.3468 20.44C23.3468 21.1734 22.7468 21.7734 22.0134 21.7734Z" fill="white"/>
<path d="M19.3199 24.6533C18.5866 24.6533 17.9866 24.0666 17.9866 23.3333V23.3066C17.9866 22.5733 18.5866 21.9733 19.3199 21.9733C20.0532 21.9733 20.6532 22.5733 20.6532 23.3066C20.6532 24.0399 20.0532 24.6533 19.3199 24.6533Z" fill="white"/>
</svg>
