<svg width="32" height="32" viewBox="0 0 32 32" fill="none" xmlns="http://www.w3.org/2000/svg">
<path d="M13.5068 20.0134L12.1334 18.64L13.4534 17.32C13.8401 16.9334 13.8401 16.2934 13.4534 15.9067C13.0668 15.52 12.4268 15.52 12.0401 15.9067L10.7201 17.2267L9.44011 15.9467C9.05344 15.56 8.41344 15.56 8.02678 15.9467C7.64011 16.3334 7.64011 16.9734 8.02678 17.36L9.30678 18.64L7.98678 19.96C7.60011 20.3467 7.60011 20.9867 7.98678 21.3734C8.18678 21.5734 8.44011 21.6667 8.69344 21.6667C8.94678 21.6667 9.20011 21.5734 9.40011 21.3734L10.7201 20.0534L12.0934 21.4267C12.2934 21.6267 12.5468 21.72 12.8001 21.72C13.0534 21.72 13.3068 21.6267 13.5068 21.4267C13.8934 21.04 13.8934 20.4 13.5068 20.0134Z" fill="white"/>
<path d="M18.0535 20C17.3201 20 16.7068 19.4 16.7068 18.6667C16.7068 17.9334 17.2935 17.3334 18.0268 17.3334H18.0535C18.7868 17.3334 19.3868 17.9334 19.3868 18.6667C19.3868 19.4 18.8001 20 18.0535 20Z" fill="white"/>
<path d="M23.3066 20C22.5733 20 21.96 19.4 21.96 18.6667C21.96 17.9334 22.5466 17.3334 23.28 17.3334H23.3066C24.04 17.3334 24.64 17.9334 24.64 18.6667C24.64 19.4 24.0533 20 23.3066 20Z" fill="white"/>
<path d="M20.6666 22.6267C19.9333 22.6267 19.3333 22.04 19.3333 21.3067V21.28C19.3333 20.5467 19.9333 19.9467 20.6666 19.9467C21.3999 19.9467 21.9999 20.5467 21.9999 21.28C21.9999 22.0133 21.4133 22.6267 20.6666 22.6267Z" fill="white"/>
<path d="M20.6666 17.3734C19.9333 17.3734 19.3333 16.7867 19.3333 16.0534V16.0267C19.3333 15.2934 19.9333 14.6934 20.6666 14.6934C21.3999 14.6934 21.9999 15.2934 21.9999 16.0267C21.9999 16.76 21.4133 17.3734 20.6666 17.3734Z" fill="white"/>
<path opacity="0.4" d="M29.3334 14.76V22.2C29.3334 26.1334 26.1334 29.3334 22.2001 29.3334H9.80008C5.86675 29.3334 2.66675 26.1334 2.66675 22.2V14.76C2.66675 10.8267 5.86675 7.62671 9.80008 7.62671H22.2001C26.1334 7.62671 29.3334 10.8267 29.3334 14.76Z" fill="white"/>
<path d="M18.1866 3.61329L18.1732 4.86663C18.1599 6.03996 17.1866 7.01329 15.9999 7.01329C15.7999 7.01329 15.6799 7.14663 15.6799 7.31996C15.6799 7.49329 15.8132 7.62663 15.9866 7.62663H13.8399C13.8266 7.53329 13.8132 7.42663 13.8132 7.31996C13.8132 6.11996 14.7866 5.14663 15.9732 5.14663C16.1732 5.14663 16.3066 5.01329 16.3066 4.83996L16.3199 3.58663C16.3332 3.07996 16.7466 2.66663 17.2532 2.66663H17.2666C17.7866 2.66663 18.1866 3.09329 18.1866 3.61329Z" fill="white"/>
</svg>
