<svg width="40" height="40" viewBox="0 0 40 40" fill="none" xmlns="http://www.w3.org/2000/svg">
<rect width="40" height="40" rx="12" fill="#9000FF" fill-opacity="0.3"/>
<g clip-path="url(#clip0_1_5216)">
<path d="M22.4514 9.2857C22.5635 9.29987 22.7231 9.33872 22.8017 9.46214C22.9019 9.61985 22.8173 9.83652 22.7981 9.89594C22.1473 11.9187 23.6163 13.8555 25.7516 13.7892C26.0736 13.7791 26.2154 13.9213 26.2062 14.244C26.1426 16.3925 28.0822 17.8516 30.1215 17.1897C30.4663 17.0777 30.6374 17.1759 30.7193 17.532C32.0904 23.4905 28.2935 29.4751 22.3307 30.7541C16.5517 31.9933 10.818 28.4493 9.34353 22.7258C8.01907 17.5846 10.6168 12.1774 15.4527 9.99285C16.355 9.58511 17.3296 9.33735 17.3296 9.33735C18.5608 9.02697 19.5578 9 20.0005 9C20.9509 9 21.78 9.12753 22.4514 9.2857ZM22.0055 9.95537C18.4021 9.1513 13.7578 10.5332 11.2228 14.6892C8.76728 18.7151 9.39018 23.8402 12.7256 27.2338C15.9581 30.5228 21.1137 31.2167 25.1054 28.9009C29.3372 26.4458 30.8798 21.7603 30.0474 17.9846C28.9246 18.2291 27.8778 18.0541 26.948 17.3583C26.0132 16.6585 25.5389 15.7004 25.4607 14.5343C24.2895 14.4552 23.3396 13.9798 22.6412 13.0537C21.941 12.1257 21.7682 11.078 22.0046 9.95537H22.0055Z" fill="white"/>
<path d="M20.4941 27.5504C19.6146 27.5467 18.8961 26.8176 18.9039 25.9372C18.9121 25.0687 19.637 24.3533 20.505 24.3574C21.3758 24.3616 22.0911 25.0765 22.0961 25.9477C22.1012 26.824 21.3717 27.5536 20.4941 27.5499V27.5504Z" fill="white"/>
<path d="M15.0525 20.4846C15.0561 21.3691 14.3376 22.0945 13.4591 22.0936C12.591 22.0927 11.8758 21.3782 11.868 20.5038C11.8602 19.6229 12.5814 18.8965 13.4623 18.8975C14.3353 18.8984 15.0488 19.6101 15.0525 20.4841V20.4846Z" fill="white"/>
<path d="M27.901 22.1987C27.8997 23.0809 27.1757 23.8 26.2948 23.7936C25.4227 23.7872 24.7161 23.0718 24.7166 22.196C24.7166 21.3201 25.4236 20.607 26.2976 20.6006C27.1761 20.5942 27.9019 21.3178 27.9006 22.1992L27.901 22.1987Z" fill="white"/>
<path d="M16.2302 14.4878C16.2266 13.6083 16.9272 12.8961 17.8012 12.8897C18.6921 12.8833 19.4079 13.5877 19.4101 14.4736C19.4124 15.3627 18.7026 16.074 17.8154 16.0717C16.9368 16.0694 16.2339 15.3668 16.2302 14.4878Z" fill="white"/>
<path d="M22.3969 19.7441C22.3956 20.6336 21.6844 21.3367 20.793 21.3307C19.9159 21.3248 19.2161 20.6176 19.217 19.7381C19.2184 18.8504 19.9319 18.1451 20.8219 18.1524C21.7022 18.1597 22.3988 18.8632 22.3969 19.7445V19.7441Z" fill="white"/>
<path d="M20.5135 12.8897C20.7147 12.8943 20.8716 13.0548 20.8702 13.2541C20.8689 13.4493 20.7019 13.6166 20.508 13.6179C20.3059 13.6193 20.1316 13.4387 20.1394 13.2367C20.1472 13.0374 20.3114 12.8852 20.5135 12.8897Z" fill="white"/>
<path d="M21.7375 16.4501C21.5386 16.4519 21.3744 16.2882 21.3721 16.0871C21.3703 15.8814 21.5253 15.7255 21.7316 15.7246C21.9364 15.7242 22.1002 15.8814 22.102 16.0812C22.1038 16.275 21.9328 16.4482 21.7375 16.4501Z" fill="white"/>
<path d="M19.0707 22.1959C19.0716 22.3929 18.9046 22.5602 18.7057 22.5611C18.5022 22.562 18.3444 22.4043 18.343 22.1991C18.3421 21.9952 18.5008 21.8325 18.7016 21.832C18.8973 21.8316 19.0693 22.0012 19.0702 22.1964L19.0707 22.1959Z" fill="white"/>
<path d="M15.0561 22.925C15.057 23.1265 14.9006 23.2884 14.7021 23.292C14.5004 23.2957 14.3212 23.116 14.3276 22.9163C14.3335 22.722 14.5041 22.5593 14.6989 22.5615C14.8992 22.5643 15.0552 22.7229 15.0561 22.925Z" fill="white"/>
<path d="M16.9423 18.6488C16.7429 18.6424 16.5837 18.4733 16.5887 18.2731C16.5938 18.0706 16.7561 17.9184 16.9619 17.923C17.1677 17.928 17.3191 18.0871 17.3132 18.2928C17.3077 18.4953 17.1408 18.6552 16.9423 18.6488Z" fill="white"/>
<path d="M13.8273 16.2366C13.8327 16.4423 13.6804 16.6032 13.4765 16.6078C13.2739 16.6123 13.1069 16.4555 13.1015 16.2558C13.096 16.0588 13.2592 15.8855 13.4568 15.88C13.6553 15.8741 13.8218 16.0345 13.8273 16.2366Z" fill="white"/>
<path d="M24.6083 19.5777C24.6133 19.777 24.4528 19.9448 24.2525 19.9489C24.0494 19.9535 23.8875 19.7976 23.8834 19.5942C23.8793 19.3912 24.0361 19.2244 24.2355 19.2198C24.4317 19.2152 24.6037 19.3803 24.6087 19.5777H24.6083Z" fill="white"/>
<path d="M23.1461 21.8315C23.3432 21.8334 23.5097 22.0029 23.5083 22.2C23.5065 22.3993 23.34 22.5629 23.1411 22.5611C22.9394 22.5593 22.7816 22.3979 22.783 22.194C22.7843 21.9915 22.9467 21.8292 23.1461 21.8311V21.8315Z" fill="white"/>
<path d="M24.2505 26.0965C24.0452 26.0997 23.8851 25.9461 23.8819 25.7427C23.8787 25.5393 24.0365 25.3738 24.2368 25.3702C24.4339 25.3665 24.6045 25.5315 24.6081 25.7295C24.6123 25.9315 24.4545 26.0933 24.2505 26.0965Z" fill="white"/>
<path d="M16.9486 25.5883C17.1471 25.587 17.3117 25.7506 17.3131 25.9513C17.3145 26.1538 17.1553 26.3174 16.955 26.3184C16.7551 26.3197 16.591 26.1575 16.5891 25.9568C16.5873 25.7566 16.7501 25.5897 16.9486 25.5879V25.5883Z" fill="white"/>
<path d="M29.0452 19.735C29.048 19.9398 28.8934 20.0988 28.6885 20.1011C28.4841 20.1034 28.3226 19.9475 28.3199 19.745C28.3167 19.5425 28.4749 19.3803 28.6784 19.378C28.8829 19.3752 29.0425 19.5306 29.0457 19.735H29.0452Z" fill="white"/>
</g>
<defs>
<clipPath id="clip0_1_5216">
<rect width="22" height="22" fill="white" transform="translate(9 9)"/>
</clipPath>
</defs>
</svg>
