<svg width="33" height="32" viewBox="0 0 33 32" fill="none" xmlns="http://www.w3.org/2000/svg">
<path opacity="0.4" d="M16.5001 29.3333C23.8639 29.3333 29.8334 23.3638 29.8334 16C29.8334 8.63616 23.8639 2.66663 16.5001 2.66663C9.13628 2.66663 3.16675 8.63616 3.16675 16C3.16675 23.3638 9.13628 29.3333 16.5001 29.3333Z" fill="white"/>
<path d="M16.94 22.6667C16.7 22.7467 16.2867 22.7467 16.0467 22.6667C13.9667 21.96 9.30005 18.9867 9.30005 13.9467C9.30005 11.72 11.0867 9.92004 13.3 9.92004C14.6067 9.92004 15.7667 10.5467 16.5 11.5334C17.22 10.56 18.3934 9.92004 19.7 9.92004C21.9134 9.92004 23.7 11.72 23.7 13.9467C23.7 18.9867 19.0334 21.96 16.94 22.6667Z" fill="white"/>
</svg>
