<svg width="20" height="20" viewBox="0 0 20 20" fill="none" xmlns="http://www.w3.org/2000/svg">
<path opacity="0.3" d="M13.4917 1.66663H6.50841C3.47508 1.66663 1.66675 3.47496 1.66675 6.50829V13.4833C1.66675 16.525 3.47508 18.3333 6.50841 18.3333H13.4834C16.5167 18.3333 18.3251 16.525 18.3251 13.4916V6.50829C18.3334 3.47496 16.5251 1.66663 13.4917 1.66663Z" fill="white"/>
<path d="M8.95006 13.5667C8.79173 13.5667 8.6334 13.5083 8.5084 13.3833C8.26673 13.1417 8.26673 12.7417 8.5084 12.5L11.0084 10L8.5084 7.50001C8.26673 7.25834 8.26673 6.85834 8.5084 6.61667C8.75007 6.37501 9.15007 6.37501 9.39173 6.61667L12.3334 9.55834C12.5751 9.80001 12.5751 10.2 12.3334 10.4417L9.39173 13.3833C9.26673 13.5083 9.1084 13.5667 8.95006 13.5667Z" fill="white"/>
</svg>
