<svg width="16" height="20" viewBox="0 0 16 20" fill="none" xmlns="http://www.w3.org/2000/svg">
<path fill-rule="evenodd" clip-rule="evenodd" d="M8.12411 0.08543C7.86442 0.200281 7.66313 0.393942 7.53928 0.648077L7.44991 0.831495L7.43128 4.70157C7.41164 8.77707 7.41555 8.69088 7.24653 8.78575C7.15504 8.83712 6.96213 8.83712 6.87064 8.78575C6.7033 8.69181 6.7055 8.73094 6.6859 5.46386L6.66726 2.35607L6.55177 2.14107C6.10868 1.31611 4.99292 1.35779 4.59064 2.21428L4.50566 2.39516L4.48703 7.33647L4.4684 12.2778L3.72425 11.2065C2.84895 9.9465 2.69894 9.76867 2.3668 9.59718C2.14024 9.48018 2.09422 9.47076 1.74855 9.47079C1.41652 9.47079 1.35432 9.48229 1.18798 9.57439C0.929077 9.71774 0.676506 10.0127 0.579234 10.2853C0.450022 10.6476 0.482036 11.1958 0.651983 11.5307C0.74236 11.7088 4.24106 17.2546 4.42006 17.5035C4.65094 17.8245 5.10368 18.3128 5.41875 18.5806C6.45565 19.4618 7.83751 19.9318 9.57424 19.9938C11.4881 20.0623 13.0265 19.5588 14.0079 18.5427C14.7769 17.7464 15.2136 16.8165 15.4315 15.5104C15.4958 15.1249 15.5 14.7619 15.5 9.54894V3.99792L15.4035 3.78292C15.273 3.49243 15.1522 3.3515 14.9161 3.21429C14.7397 3.11179 14.6818 3.09881 14.4006 3.09881C14.1153 3.09881 14.0634 3.11085 13.8788 3.21996C13.6587 3.35002 13.4376 3.6176 13.3548 3.8543C13.3152 3.96747 13.3002 4.57288 13.2842 6.70842L13.2639 9.41896L13.1593 9.51325C13.021 9.63799 12.8358 9.63795 12.6976 9.51325L12.593 9.41892L12.5744 5.53567C12.5559 1.67208 12.5553 1.65152 12.4761 1.47174C12.3677 1.22581 12.1692 1.00467 11.9531 0.888842C11.703 0.754797 11.217 0.751122 10.9821 0.881493C10.7636 1.00276 10.5694 1.21733 10.4648 1.45297L10.3763 1.65242L10.3759 5.01919C10.3757 6.87092 10.3651 8.44069 10.3523 8.50758C10.2955 8.80538 9.97011 8.92699 9.75335 8.73141L9.64878 8.63709L9.63014 4.75384C9.61162 0.890249 9.6111 0.869687 9.53187 0.689905C9.35115 0.279989 9.00663 0.0347281 8.56798 0.00376751C8.39017 -0.00878092 8.29923 0.00795032 8.12411 0.08543Z" fill="white"/>
</svg>
