<svg width="130" height="40" viewBox="0 0 130 40" fill="none" xmlns="http://www.w3.org/2000/svg">
<path d="M20.1698 28.8087C25.0406 28.8087 28.9892 24.8602 28.9892 19.9893C28.9892 15.1185 25.0406 11.1699 20.1698 11.1699C15.2989 11.1699 11.3503 15.1185 11.3503 19.9893C11.3503 24.8602 15.2989 28.8087 20.1698 28.8087Z" fill="#FF5F00"/>
<path d="M20.1697 8.81941L24.1805 4.80863V0H16.1589V4.80863L20.1697 8.81941Z" fill="#FF5F00"/>
<path d="M14.5848 10.3292L16.0511 4.83051L13.636 0.647217L6.69263 4.67956L9.10772 8.84129L14.5848 10.3292Z" fill="#FF8300"/>
<path d="M10.4878 14.4039L9.02147 8.92681L4.83818 6.51172L0.827393 13.4551L5.03225 15.8702L10.4878 14.4039Z" fill="#FF5F00"/>
<path d="M8.99991 19.9893L4.98913 15.9785H0.158936V24.0001H4.98913L8.99991 19.9893Z" fill="#FF8300"/>
<path d="M10.4878 25.5745L5.03225 24.1082L0.827393 26.5232L4.83818 33.4666L9.02147 31.0516L10.4878 25.5745Z" fill="#FF5F00"/>
<path d="M14.5633 29.6711L9.10772 31.1375L6.69263 35.3207L13.636 39.31L16.0511 35.1267L14.5633 29.6711Z" fill="#FF8300"/>
<path d="M20.1697 31.1589L16.1589 35.1697V39.9999H24.1805V35.1697L20.1697 31.1589Z" fill="#FF5F00"/>
<path d="M25.7546 29.6711L24.2883 35.1267L26.7034 39.31L33.6468 35.3207L31.2317 31.1375L25.7546 29.6711Z" fill="#FF8300"/>
<path d="M29.8301 25.5745L31.2964 31.0516L35.4797 33.4666L39.512 26.5232L35.3287 24.1082L29.8301 25.5745Z" fill="#FF5F00"/>
<path d="M31.3396 19.9893L35.3504 24.0001H40.159V15.9785H35.3504L31.3396 19.9893Z" fill="#FF8300"/>
<path d="M29.8301 14.4039L35.3287 15.8702L39.512 13.4551L35.4797 6.51172L31.318 8.92681L29.8301 14.4039Z" fill="#FF5F00"/>
<path d="M25.7546 10.3292L31.2317 8.86285L33.6468 4.67956L26.7034 0.647217L24.2883 4.83051L25.7546 10.3292Z" fill="#FF8300"/>
<path d="M54.0458 4.76538C57.5606 4.76538 59.3073 6.49045 59.3073 6.49045L57.6038 9.61713C57.6038 9.61713 56.3746 8.38802 54.3477 8.38802C51.8032 8.38802 50.7897 9.94058 50.7897 11.6872C50.7897 13.7573 52.1482 15.2236 54.2183 15.2236C55.4905 15.2236 56.4825 14.5551 56.5903 14.3826V13.7789H54.8652V10.8678H59.9542V18.5012H56.6981V17.919C56.6981 17.7034 56.7197 17.5309 56.7412 17.4878H56.655C56.4825 17.725 55.4043 18.7384 53.2264 18.7384C49.5606 18.7384 46.5417 15.9999 46.5417 11.7735C46.6064 7.80581 49.5391 4.76538 54.0458 4.76538Z" fill="white"/>
<path d="M76.7088 5.26147H82.4662C85.3773 5.26147 87.3611 6.8356 87.3611 9.61727C87.3611 11.1483 86.5848 12.5714 85.3342 13.3262V13.3693C85.3773 13.434 85.636 13.779 85.9164 14.275L88.2452 18.5229H83.8894L81.8193 14.3612H80.698V18.5229H76.6873V5.26147H76.7088ZM81.9056 11.2776C82.8112 11.2776 83.3072 10.7386 83.3072 9.87603C83.3072 9.03506 82.9622 8.49598 81.7546 8.49598H80.698V11.2561L81.9056 11.2776Z" fill="white"/>
<path d="M89.2373 5.26147H94.6281C98.7252 5.26147 101.334 7.67657 101.334 11.8599C101.334 16.0431 98.7252 18.5229 94.6281 18.5229H89.2373V5.26147ZM94.3694 15.2453C96.1591 15.2453 97.2157 14.1024 97.2157 11.8599C97.2157 9.63883 96.0945 8.51754 94.3694 8.51754H93.2481V15.2453H94.3694Z" fill="white"/>
<path d="M118.024 5.26147H121.841L125.119 10.6954C125.658 11.6011 126.067 12.7224 126.067 12.7224H126.132C126.132 12.7224 125.981 11.5364 125.981 10.6954V5.26147H129.841V18.5229H125.96L122.66 12.8302C122.186 12.0324 121.712 10.8248 121.712 10.8248H121.647C121.647 10.8248 121.798 11.9892 121.798 12.8302V18.5229H118.003V5.26147H118.024Z" fill="white"/>
<path d="M47.62 21.5635H51.9974L53.6577 26.9112C53.9165 27.7522 54.1968 29.046 54.1968 29.046H54.2615C54.2615 29.046 54.5418 27.7737 54.8006 26.9112L56.461 21.5635H60.8168L61.7871 34.8249H58.0567L57.6901 29.3047C57.6254 28.3128 57.6901 27.1699 57.6901 27.1699H57.6254C57.6254 27.1699 57.3019 28.4637 57.0216 29.3047L55.8141 33.0783H52.6227L51.3936 29.3047C51.1348 28.4637 50.7898 27.1699 50.7898 27.1699H50.7251C50.7251 27.1699 50.7682 28.2912 50.7036 29.3047L50.3585 34.8249H46.585L47.62 21.5635Z" fill="white"/>
<path d="M69.8948 21.24C74.2506 21.24 77.1616 24.2157 77.1616 28.1403C77.1616 32.1726 74.2506 35.213 69.8948 35.213C65.539 35.213 62.6279 32.1726 62.6279 28.1403C62.6279 24.2157 65.539 21.24 69.8948 21.24ZM69.8948 31.612C71.663 31.612 72.9568 30.2103 72.9568 28.1618C72.9568 26.1996 71.6845 24.8626 69.8948 24.8626C68.105 24.8626 66.8328 26.1996 66.8328 28.1618C66.8328 30.2103 68.1266 31.612 69.8948 31.612Z" fill="white"/>
<path d="M68.2991 5.00244C72.6549 5.00244 75.5659 7.97818 75.5659 11.9027C75.5659 15.9351 72.6549 18.9755 68.2991 18.9755C63.9433 18.9755 61.0322 15.9351 61.0322 11.9027C61.0538 7.97818 63.9433 5.00244 68.2991 5.00244ZM68.2991 15.3744C70.0673 15.3744 71.3611 13.9728 71.3611 11.9243C71.3611 9.96201 70.0888 8.62508 68.2991 8.62508C66.5093 8.62508 65.2371 9.96201 65.2371 11.9243C65.2371 13.9728 66.5309 15.3744 68.2991 15.3744Z" fill="white"/>
<path d="M109.55 5.00244C113.906 5.00244 116.817 7.97818 116.817 11.9027C116.817 15.9351 113.906 18.9755 109.55 18.9755C105.194 18.9755 102.283 15.9351 102.283 11.9027C102.283 7.97818 105.194 5.00244 109.55 5.00244ZM109.55 15.3744C111.318 15.3744 112.612 13.9728 112.612 11.9243C112.612 9.96201 111.34 8.62508 109.55 8.62508C107.782 8.62508 106.488 9.96201 106.488 11.9243C106.488 13.9728 107.76 15.3744 109.55 15.3744Z" fill="white"/>
<path d="M85.2048 21.24C89.5606 21.24 92.4717 24.2157 92.4717 28.1403C92.4717 32.1726 89.5606 35.213 85.2048 35.213C80.849 35.213 77.938 32.1726 77.938 28.1403C77.938 24.2157 80.8706 21.24 85.2048 21.24ZM85.2048 31.612C86.973 31.612 88.2668 30.2103 88.2668 28.1618C88.2668 26.1996 86.9946 24.8626 85.2048 24.8626C83.4151 24.8626 82.1428 26.1996 82.1428 28.1618C82.1428 30.2103 83.4366 31.612 85.2048 31.612Z" fill="white"/>
<path d="M93.8086 21.5635H99.1994C103.296 21.5635 105.906 23.9786 105.906 28.1619C105.906 32.3451 103.296 34.8249 99.1994 34.8249H93.8086V21.5635ZM98.9407 31.5689C100.73 31.5689 101.787 30.426 101.787 28.1834C101.787 25.9624 100.666 24.8411 98.9407 24.8411H97.8194V31.5689H98.9407Z" fill="white"/>
<path d="M109.442 29.585L105.065 21.585H109.356L110.628 24.3235C110.995 25.1645 111.383 26.3289 111.383 26.3289H111.447C111.447 26.3289 111.836 25.1645 112.224 24.3235L113.474 21.585H117.787L113.474 29.585V34.8249H109.464L109.442 29.585Z" fill="white"/>
</svg>
