<svg width="32" height="32" viewBox="0 0 32 32" fill="none" xmlns="http://www.w3.org/2000/svg">
<path d="M29.3333 7.61333V20.3867C29.3333 24.0667 26.3467 27.0533 22.6667 27.0533H9.33335C8.72001 27.0533 8.13335 26.9733 7.56001 26.8133C6.73335 26.5867 6.46668 25.5333 7.08001 24.92L21.2533 10.7467C21.5467 10.4533 21.9867 10.3867 22.4 10.4667C22.8267 10.5467 23.2933 10.4267 23.6267 10.1067L27.0533 6.66666C28.3067 5.41333 29.3333 5.82666 29.3333 7.61333Z" fill="#9000FF"/>
<path d="M19.5201 9.81333L5.56008 23.7733C4.92008 24.4133 3.85341 24.2533 3.42675 23.4533C2.93341 22.5467 2.66675 21.4933 2.66675 20.3867V7.61333C2.66675 5.82666 3.69341 5.41333 4.94675 6.66666L8.38675 10.12C8.90675 10.6267 9.76008 10.6267 10.2801 10.12L15.0534 5.33333C15.5734 4.81333 16.4267 4.81333 16.9467 5.33333L19.5334 7.92C20.0401 8.44 20.0401 9.29333 19.5201 9.81333Z" fill="#B661F7"/>
</svg>
