<svg width="32" height="32" viewBox="0 0 32 32" fill="none" xmlns="http://www.w3.org/2000/svg">
<path d="M13.2295 9.40934C14.2887 6.57667 14.8183 5.16033 15.708 4.99517C15.901 4.95934 16.099 4.95934 16.292 4.99517C17.1817 5.16033 17.7113 6.57667 18.7705 9.40934C19.075 10.2236 19.2272 10.6307 19.5328 10.897C19.604 10.959 19.6805 11.0147 19.7615 11.0632C20.1092 11.2715 20.5434 11.2905 21.4119 11.3284C24.4333 11.4605 25.944 11.5265 26.376 12.3216C26.4697 12.4941 26.5309 12.6824 26.5565 12.8771C26.6743 13.7742 25.491 14.7156 23.1242 16.5983C22.4439 17.1395 22.1037 17.4101 21.9449 17.783C21.9079 17.8699 21.8787 17.9598 21.8576 18.0519C21.7669 18.4469 21.883 18.8658 22.1153 19.7035C22.9234 22.6177 23.3274 24.0749 22.7047 24.7314C22.5696 24.8739 22.4095 24.9903 22.2322 25.0747C21.4154 25.4641 20.1544 24.6295 17.6325 22.9604C16.9075 22.4806 16.5451 22.2407 16.1414 22.2049C16.0473 22.1966 15.9527 22.1966 15.8586 22.2049C15.4549 22.2407 15.0925 22.4806 14.3675 22.9604C11.8456 24.6295 10.5846 25.4641 9.76778 25.0747C9.59055 24.9903 9.43037 24.8739 9.29527 24.7314C8.67257 24.0749 9.07661 22.6177 9.8847 19.7035C10.117 18.8658 10.2331 18.4469 10.1424 18.0519C10.1213 17.9598 10.0921 17.8699 10.0551 17.783C9.89626 17.4101 9.55609 17.1395 8.87577 16.5983C6.50905 14.7156 5.32569 13.7742 5.44354 12.8771C5.46911 12.6824 5.53029 12.4941 5.62403 12.3216C6.05603 11.5265 7.56671 11.4605 10.5881 11.3284C11.4566 11.2905 11.8908 11.2715 12.2385 11.0632C12.3195 11.0147 12.396 10.959 12.4672 10.897C12.7728 10.6307 12.925 10.2236 13.2295 9.40934Z" fill="#9000FF"/>
</svg>
