<svg width="33" height="32" viewBox="0 0 33 32" fill="none" xmlns="http://www.w3.org/2000/svg">
<path opacity="0.4" d="M22.0867 2.66663H10.9134C6.06008 2.66663 3.16675 5.55996 3.16675 10.4133V21.5733C3.16675 26.44 6.06008 29.3333 10.9134 29.3333H22.0734C26.9267 29.3333 29.8201 26.44 29.8201 21.5866V10.4133C29.8334 5.55996 26.9401 2.66663 22.0867 2.66663Z" fill="white"/>
<path d="M12.26 13C11.1267 13 9.99334 12.5733 9.12667 11.7066C8.74 11.32 8.74 10.68 9.12667 10.2933C9.51334 9.90663 10.1533 9.90663 10.54 10.2933C11.4867 11.24 13.0333 11.24 13.98 10.2933C14.3667 9.90663 15.0067 9.90663 15.3933 10.2933C15.78 10.68 15.78 11.32 15.3933 11.7066C14.5267 12.56 13.3933 13 12.26 13Z" fill="white"/>
<path d="M20.74 13C19.6067 13 18.4733 12.5733 17.6067 11.7066C17.22 11.32 17.22 10.68 17.6067 10.2933C17.9933 9.90663 18.6333 9.90663 19.02 10.2933C19.9667 11.24 21.5133 11.24 22.46 10.2933C22.8466 9.90663 23.4867 9.90663 23.8733 10.2933C24.26 10.68 24.26 11.32 23.8733 11.7066C23.0067 12.56 21.8733 13 20.74 13Z" fill="white"/>
<path d="M21.2999 16.8267H11.6999C10.7666 16.8267 10.0066 17.5867 10.0066 18.5333C10.0066 22.12 12.9266 25.04 16.5133 25.04C20.0999 25.04 23.0199 22.12 23.0199 18.5333C23.0066 17.6 22.2333 16.8267 21.2999 16.8267Z" fill="white"/>
</svg>
