<svg width="33" height="32" viewBox="0 0 33 32" fill="none" xmlns="http://www.w3.org/2000/svg">
<path opacity="0.4" d="M24.5 25.1467H23.4867C22.42 25.1467 21.4067 25.56 20.66 26.3067L18.38 28.56C17.34 29.5867 15.6467 29.5867 14.6067 28.56L12.3267 26.3067C11.58 25.56 10.5533 25.1467 9.5 25.1467H8.5C6.28667 25.1467 4.5 23.3734 4.5 21.1867V6.64001C4.5 4.45335 6.28667 2.68005 8.5 2.68005H24.5C26.7133 2.68005 28.5 4.45335 28.5 6.64001V21.1867C28.5 23.3601 26.7133 25.1467 24.5 25.1467Z" fill="white"/>
<path d="M14.3401 19.3466H10.7667C10.1801 19.3466 9.63339 19.0666 9.28672 18.5866C8.95339 18.1333 8.87339 17.5733 9.03339 17.04C9.50005 15.6133 10.6467 14.8399 11.6601 14.1466C12.7267 13.4266 13.3267 12.9733 13.3267 12.2C13.3267 11.5067 12.7667 10.9467 12.0734 10.9467C11.3801 10.9467 10.8201 11.5067 10.8201 12.2C10.8201 12.7467 10.3667 13.2 9.82007 13.2C9.2734 13.2 8.82007 12.7467 8.82007 12.2C8.82007 10.4133 10.2734 8.94666 12.0734 8.94666C13.8734 8.94666 15.3267 10.4 15.3267 12.2C15.3267 14.08 13.9134 15.0399 12.7801 15.8133C12.0734 16.2933 11.4067 16.7466 11.0734 17.3466H14.3267C14.8734 17.3466 15.3267 17.8 15.3267 18.3466C15.3267 18.8933 14.8867 19.3466 14.3401 19.3466Z" fill="white"/>
<path d="M21.8867 19.3467C21.34 19.3467 20.8867 18.8933 20.8867 18.3467V17.4267H18.2733C18.2733 17.4267 18.2733 17.4267 18.26 17.4267C17.6067 17.4267 17.0067 17.08 16.6733 16.52C16.34 15.9467 16.34 15.24 16.6733 14.68C17.58 13.12 18.6333 11.3466 19.5933 9.79996C20.02 9.11996 20.8333 8.81336 21.5933 9.02669C22.3533 9.25336 22.8867 9.94666 22.8733 10.7467V15.44H23.1667C23.7133 15.44 24.1667 15.8934 24.1667 16.44C24.1667 16.9867 23.7133 17.44 23.1667 17.44H22.8867V18.36C22.8867 18.9067 22.4467 19.3467 21.8867 19.3467ZM20.8867 11.52C20.1 12.8 19.2867 14.1733 18.5533 15.4267H20.8867V11.52Z" fill="white"/>
</svg>
